<svg width="16" height="16" viewBox="0 0 16 16" fill="none" xmlns="http://www.w3.org/2000/svg">
<g clip-path="url(#clip0_798_19014)">
<path fill-rule="evenodd" clip-rule="evenodd" d="M10.3008 3.56077L11.5391 2.54789C12.2971 3.03958 12.9547 3.68935 13.4572 4.46565L12.4426 5.70346C11.9601 4.76787 11.2024 4.02838 10.3008 3.56077ZM12.9957 7.76758C13.0456 8.81907 12.7592 9.83834 12.2122 10.6941L13.791 10.9521C14.2016 10.1473 14.4462 9.2558 14.4933 8.33224L12.9957 7.76758ZM9.29412 12.8296C9.8045 12.6929 10.2752 12.4819 10.6977 12.2114L10.9562 13.7904C10.5576 13.9934 10.1318 14.1581 9.68235 14.2785C9.23289 14.399 8.78181 14.4692 8.33505 14.4927L7.76953 12.996C8.27064 13.019 8.78374 12.9664 9.29412 12.8296ZM5.69925 12.4392C4.79764 11.9716 4.03996 11.2321 3.55746 10.2965L2.54282 11.5344C3.04535 12.3107 3.70294 12.9604 4.46093 13.4521L5.69925 12.4392ZM7.665 1.5073L8.23052 3.00397C7.72942 2.98098 7.21631 3.03362 6.70593 3.17037C6.19555 3.30713 5.72487 3.5181 5.3024 3.78856L5.04382 2.20965C5.44247 2.00662 5.86824 1.84192 6.3177 1.72148C6.76716 1.60105 7.21824 1.5308 7.665 1.5073ZM3.78788 5.3059L2.20902 5.04789C1.79843 5.85269 1.55382 6.7442 1.50677 7.66776L3.00438 8.23242C2.95444 7.18093 3.24087 6.16167 3.78788 5.3059ZM11.8637 6.96473C12.4355 9.09859 11.1692 11.2919 9.0353 11.8637C6.90144 12.4355 4.70809 11.1691 4.13632 9.03528C3.56456 6.90141 4.83089 4.70807 6.96475 4.1363C9.09861 3.56453 11.292 4.83086 11.8637 6.96473Z" fill="#F0A732"/>
</g>
<defs>
<clipPath id="clip0_798_19014">
<rect width="13" height="13" fill="white" transform="translate(0.0391846 3.40381) rotate(-15)"/>
</clipPath>
</defs>
</svg>
