<svg width="16" height="16" viewBox="0 0 16 16" fill="none" xmlns="http://www.w3.org/2000/svg">
<g clip-path="url(#clip0_798_19003)">
<path d="M2 8.00004C2 11.3137 4.68629 14 8 14C9.66373 14 11.1693 13.3229 12.2561 12.2291C11.9856 12.2665 11.7093 12.2857 11.4286 12.2857C8.11486 12.2857 5.42857 9.59946 5.42857 6.28575C5.42857 4.63577 6.09458 3.14134 7.17244 2.05664C4.25035 2.45977 2 4.9671 2 8.00004Z" fill="#AFB1B3"/>
<path d="M6.92857 6L7.92857 7L8.92857 6L7.92857 5L6.92857 6Z" fill="#AFB1B3"/>
<path d="M8.92857 9L9.92857 10L10.9286 9L9.92857 8L8.92857 9Z" fill="#AFB1B3"/>
<path d="M10.4286 5L10.9286 5.5L11.4286 5L10.9286 4.5L10.4286 5Z" fill="#AFB1B3"/>
</g>
<defs>
<clipPath id="clip0_798_19003">
<rect width="12" height="12" fill="white" transform="translate(2 2)"/>
</clipPath>
</defs>
</svg>
